<svg xmlns="http://www.w3.org/2000/svg" viewBox="0 0 1024 1024" width="1024" height="1024" shape-rendering="crispEdges">
  <!--
    The publisher's A, drawn at 16 pixels and enlarged by whole cells, so the small sizes carry a
    drawing rather than a shrinking of one. Generated by art/make_pixel_mark.py, so edit that and
    re-run rather than editing this. Two inks, both the application's own.
  -->
  <rect x="0" y="0" width="1024" height="1024" fill="#16110A"/>
  <rect x="256" y="192" width="192" height="64" fill="#F4E8CE"/>
  <rect x="512" y="192" width="192" height="64" fill="#F4E8CE"/>
  <rect x="256" y="256" width="192" height="64" fill="#F4E8CE"/>
  <rect x="576" y="256" width="192" height="64" fill="#F4E8CE"/>
  <rect x="256" y="320" width="192" height="64" fill="#F4E8CE"/>
  <rect x="576" y="320" width="192" height="64" fill="#F4E8CE"/>
  <rect x="256" y="384" width="192" height="64" fill="#F4E8CE"/>
  <rect x="640" y="384" width="192" height="64" fill="#F4E8CE"/>
  <rect x="192" y="448" width="192" height="64" fill="#F4E8CE"/>
  <rect x="640" y="448" width="192" height="64" fill="#F4E8CE"/>
  <rect x="192" y="512" width="640" height="64" fill="#F4E8CE"/>
  <rect x="128" y="576" width="704" height="64" fill="#F4E8CE"/>
  <rect x="128" y="640" width="192" height="64" fill="#F4E8CE"/>
  <rect x="704" y="640" width="192" height="64" fill="#F4E8CE"/>
  <rect x="128" y="704" width="192" height="64" fill="#F4E8CE"/>
  <rect x="704" y="704" width="192" height="64" fill="#F4E8CE"/>
  <rect x="128" y="768" width="192" height="64" fill="#F4E8CE"/>
  <rect x="768" y="768" width="192" height="64" fill="#F4E8CE"/>
</svg>
